<svg xmlns="http://www.w3.org/2000/svg" width="15" height="30" viewBox="0 0 15 30" fill="none">
    <style>
       @media ( prefers-color-scheme: dark ) {
			path {
				fill: #FFFFFF;
			}
		}
    </style>
    <path d="M13.9292 1.33017C14.6862 2.51285 14.9386 4.26116 14.5853 6.5751C14.4843 7.19215 14.2825 8.16914 13.9797 9.40324C13.6769 10.6373 13.5255 11.5629 13.4245 12.2314C13.3741 12.6942 12.718 13.1055 11.5572 13.4141C11.2544 13.4655 10.8507 13.5683 10.3964 13.6198C9.68989 13.6712 9.33662 13.5683 9.38708 13.3626C9.38708 13.3112 9.68989 11.8714 10.346 9.09472C10.7497 7.34641 10.8507 5.90663 10.6993 4.77537C10.5478 3.38701 10.0936 2.46143 9.43755 1.99864C9.38709 2.05007 9.33662 2.10149 9.33662 2.10149C7.41884 3.90122 6.0562 6.8322 5.19825 10.843C4.59263 13.5683 4.18889 16.6536 4.03749 20.0474C3.98702 22.3099 4.03749 23.6982 4.08795 24.161C4.28983 25.8579 4.94591 26.9892 6.00573 27.452C6.25807 27.1949 6.45995 26.8349 6.66182 26.475C7.1665 25.5494 7.62071 24.3153 8.07492 22.7727C8.12539 22.6184 8.37773 22.3613 8.88241 22.1556C9.33662 21.9499 9.8413 21.7957 10.3964 21.6928C11.6077 21.4871 12.1124 21.59 12.0114 22.0528C11.4058 24.161 10.7497 25.7037 10.0432 26.6292C9.38708 27.5034 8.47866 28.2233 7.36837 28.7375C6.30854 29.2003 5.19825 29.4574 4.03749 29.406C2.01877 29.3031 0.80754 28.3261 0.30286 26.5264C0.0505208 25.6008 -0.050415 23.9553 -0.050415 21.4871C0.100989 18.0934 0.504732 15.0595 1.00941 12.2828C1.8169 8.27199 3.12906 5.23816 4.99638 3.1299C6.15714 1.79296 7.67118 0.918807 9.38708 0.45602C11.6581 -0.212451 13.1217 0.147495 13.9292 1.33017Z" fill="#302F80"/>
</svg>