<svg width="33" height="33" viewBox="0 0 33 33" fill="none" xmlns="http://www.w3.org/2000/svg">
<path d="M28.566 0.51123H4.45006C1.99485 0.51123 0 2.44469 0 4.82434V28.1981C0 30.5778 1.99485 32.5112 4.45006 32.5112H16.3465L16.3707 21.0748H13.3017C12.906 21.0748 12.5829 20.7617 12.5749 20.3782L12.5587 16.6913C12.5587 16.2999 12.8818 15.9868 13.2856 15.9868H16.3465V12.4251C16.3465 8.29205 18.9471 6.03765 22.751 6.03765H25.8685C26.2642 6.03765 26.5954 6.35076 26.5954 6.74215V9.84978C26.5954 10.2333 26.2723 10.5543 25.8685 10.5543H23.9544C21.8869 10.5543 21.483 11.5093 21.483 12.9026V15.9868H26.03C26.4661 15.9868 26.7973 16.3547 26.7488 16.7695L26.2965 20.4564C26.2562 20.8087 25.9412 21.0748 25.5778 21.0748H21.4992L21.475 32.5112H28.5498C31.005 32.5112 32.9999 30.5778 32.9999 28.1981V4.82434C33.0161 2.44469 31.0212 0.51123 28.566 0.51123Z" fill="#302F80"/>
</svg>
