<svg width="33" height="33" viewBox="0 0 33 33" fill="none" xmlns="http://www.w3.org/2000/svg">
<path d="M22.0927 7.78424H11.2788C9.55283 7.78424 8.14917 9.18791 8.14917 10.9138V21.7278C8.14917 23.4537 9.55283 24.8574 11.2788 24.8574H22.0927C23.8187 24.8574 25.2223 23.4537 25.2223 21.7278V10.9138C25.2223 9.18791 23.8187 7.78424 22.0927 7.78424ZM16.6857 21.9426C13.5848 21.9426 11.0639 19.4218 11.0639 16.3208C11.0639 13.2199 13.5848 10.699 16.6857 10.699C19.7867 10.699 22.3076 13.2199 22.3076 16.3208C22.3076 19.4146 19.7795 21.9426 16.6857 21.9426ZM22.4866 11.8592C21.7561 11.8592 21.1546 11.2648 21.1546 10.5271C21.1546 9.78948 21.749 9.19507 22.4866 9.19507C23.2171 9.19507 23.8187 9.78948 23.8187 10.5271C23.8187 11.2648 23.2171 11.8592 22.4866 11.8592Z" fill="white"/>
<path d="M16.6858 13.0769C14.8954 13.0769 13.4417 14.5307 13.4417 16.3211C13.4417 18.1115 14.8954 19.5653 16.6858 19.5653C18.4762 19.5653 19.93 18.1115 19.93 16.3211C19.93 14.5307 18.4762 13.0769 16.6858 13.0769Z" fill="white"/>
<path d="M28.6171 0H4.74762C2.32701 0 0.364746 1.96227 0.364746 4.38287V28.2523C0.364746 30.6729 2.32701 32.6352 4.74762 32.6352H28.6171C31.0377 32.6352 32.9999 30.6729 32.9999 28.2523V4.38287C32.9999 1.96227 31.0377 0 28.6171 0ZM22.0929 27.2282H11.279C8.24245 27.2282 5.77172 24.7575 5.77172 21.721V10.907C5.77172 7.87055 8.24245 5.39981 11.279 5.39981H22.0929C25.1294 5.39981 27.6001 7.87055 27.6001 10.907V21.721C27.593 24.7647 25.1294 27.2282 22.0929 27.2282Z" fill="white"/>
</svg>
