<svg width="151" height="38" viewBox="0 0 151 38" fill="none" xmlns="http://www.w3.org/2000/svg">
    <g clip-path="url(#clip0_25_78)">
    <path d="M13.9292 8.33017C14.6862 9.51285 14.9386 11.2612 14.5853 13.5751C14.4843 14.1921 14.2825 15.1691 13.9797 16.4032C13.6769 17.6373 13.5255 18.5629 13.4245 19.2314C13.3741 19.6942 12.718 20.1055 11.5572 20.4141C11.2544 20.4655 10.8507 20.5683 10.3964 20.6198C9.68989 20.6712 9.33662 20.5683 9.38708 20.3626C9.38708 20.3112 9.68989 18.8714 10.346 16.0947C10.7497 14.3464 10.8507 12.9066 10.6993 11.7754C10.5478 10.387 10.0936 9.46143 9.43755 8.99864C9.38709 9.05007 9.33662 9.10149 9.33662 9.10149C7.41884 10.9012 6.0562 13.8322 5.19825 17.843C4.59263 20.5683 4.18889 23.6536 4.03749 27.0474C3.98702 29.3099 4.03749 30.6982 4.08795 31.161C4.28983 32.8579 4.94591 33.9892 6.00573 34.452C6.25807 34.1949 6.45995 33.8349 6.66182 33.475C7.1665 32.5494 7.62071 31.3153 8.07492 29.7727C8.12539 29.6184 8.37773 29.3613 8.88241 29.1556C9.33662 28.9499 9.8413 28.7957 10.3964 28.6928C11.6077 28.4871 12.1124 28.59 12.0114 29.0528C11.4058 31.161 10.7497 32.7037 10.0432 33.6292C9.38708 34.5034 8.47866 35.2233 7.36837 35.7375C6.30854 36.2003 5.19825 36.4574 4.03749 36.406C2.01877 36.3031 0.80754 35.3261 0.30286 33.5264C0.0505208 32.6008 -0.050415 30.9553 -0.050415 28.4871C0.100989 25.0934 0.504732 22.0595 1.00941 19.2828C1.8169 15.272 3.12906 12.2382 4.99638 10.1299C6.15714 8.79296 7.67118 7.91881 9.38708 7.45602C11.6581 6.78755 13.1217 7.1475 13.9292 8.33017Z" fill="#FFFFFF"/>
    <path d="M16.5535 11.1069C16.604 10.9526 16.8563 10.747 17.361 10.4899C17.8152 10.2842 18.3199 10.0785 18.875 9.97565C20.0358 9.76996 20.5909 9.8728 20.49 10.3356C20.0358 12.3924 19.2788 16.3004 18.1685 22.0595C17.7143 24.5792 17.3105 26.5332 16.9572 28.0758C16.6544 29.4641 16.4526 30.4411 16.3012 31.0068C15.9984 32.138 15.847 33.0122 15.847 33.5264C15.847 34.0406 15.1404 34.452 13.8282 34.7605C13.3236 34.8633 12.8693 34.9148 12.4656 34.8633C12.0619 34.8633 11.86 34.7605 11.86 34.6062C11.86 34.3491 12.2133 32.498 12.9703 29.0528C13.3236 27.3559 13.7273 25.4019 14.1815 23.0365C15.2918 17.1231 16.0993 13.1637 16.5535 11.1069Z" fill="#FFFFFF"/>
    <path d="M35.2266 6.06766C36.4378 5.86197 36.993 5.96481 36.8416 6.4276C34.4696 14.1921 32.6023 23.3451 31.1892 33.9377C31.1387 34.4005 30.5331 34.7605 29.4733 35.069C28.8677 35.3261 28.262 35.4804 27.7069 35.5318C27.1013 35.5832 26.6975 35.4804 26.5966 35.2233C26.1929 33.9892 25.7386 31.9838 25.234 29.207C24.9312 27.253 24.5274 25.0419 24.1237 22.6252C24.1237 22.4709 24.0732 22.2652 24.0227 22.0081C23.0134 26.8417 22.3068 30.6982 21.9536 33.5778C21.9031 34.0406 21.2975 34.4005 20.0862 34.7091C19.7834 34.8119 19.3797 34.8633 18.9255 34.9147C18.2189 34.9662 17.8657 34.9147 17.9161 34.6576C18.2694 31.7267 18.9759 27.8701 19.9853 22.9851C21.1461 17.3288 21.9031 13.4723 22.2564 11.364C22.2564 11.2097 22.5592 11.0041 23.0638 10.747C23.5181 10.5413 24.0227 10.387 24.5779 10.2842C25.7386 10.0785 26.2938 10.1813 26.1929 10.6441V10.6955L26.2433 10.747C26.5966 11.4668 26.8994 13.0609 27.2022 15.4777C27.3032 16.1976 27.606 18.2544 28.1611 21.5453C28.363 22.7794 28.5649 23.9107 28.7163 24.8363C29.877 18.4087 31.2396 12.5467 32.8546 7.25034C32.9051 7.09607 33.1574 6.89039 33.6621 6.63329C34.1163 6.4276 34.3687 6.32476 34.3687 6.32476C34.3687 6.32476 34.6715 6.1705 35.2266 6.06766Z" fill="#FFFFFF"/>
    <path d="M46.0773 7.97023C47.339 8.38159 47.8436 9.25575 47.5913 10.6441C47.5408 10.7984 47.2885 11.0041 46.7838 11.2612C46.3296 11.4668 45.8249 11.6211 45.2193 11.7239C44.0586 11.9296 43.5539 11.8268 43.6043 11.364C43.8062 10.2327 43.4025 9.61569 42.3426 9.46143C42.3931 9.46143 42.2922 9.46143 42.0398 9.46143C41.8884 9.56427 41.737 9.66711 41.6361 9.76996C40.223 11.0041 39.2641 12.8552 38.8099 15.272C38.4566 16.9689 38.4566 18.7172 38.8099 20.5683C39.0118 21.5967 39.3146 22.4195 39.6678 22.9851C39.7183 23.0365 39.8192 23.1394 39.8697 23.2422C40.6267 23.3451 41.2828 23.6536 41.838 24.1678C42.0903 24.4249 41.8884 24.7334 41.0809 25.0934C40.1725 25.5047 39.365 25.7104 38.608 25.659C38.1033 25.6076 37.6491 25.5562 37.2454 25.4019C37.0435 25.6076 36.8921 25.8647 36.7407 26.0704C35.5799 27.8701 35.0753 29.5156 35.2771 31.0068C35.4285 32.138 35.7313 32.9608 36.2865 33.5264C36.5893 33.8349 36.8921 34.0406 37.1949 34.1949C37.3463 34.2463 37.4977 34.3491 37.5987 34.3491C37.5987 34.3491 37.6491 34.3491 37.7501 34.3491L37.8005 34.2977C38.4566 33.7321 38.9613 33.0122 39.3146 32.0866C39.5164 31.6238 40.2735 31.2124 41.6866 30.9553C42.0398 30.9039 42.3931 30.8525 42.6959 30.9039C43.2006 30.9039 43.4025 31.0582 43.3015 31.3667C42.7464 32.7551 41.7875 33.8349 40.3744 34.7091C39.0622 35.5318 37.6491 35.9432 36.1351 35.9946C34.6211 36.046 33.5108 35.7375 32.7537 35.1204C31.8958 34.3491 31.3911 33.3207 31.2397 32.0352C31.0378 29.7727 31.8453 27.5616 33.7126 25.5047C34.2678 24.8877 34.9239 24.4249 35.6809 24.0135C35.1762 23.2422 34.8734 22.2652 34.722 21.0311C34.4192 18.6143 34.5706 16.4547 35.1762 14.4493C36.1856 11.2612 38.1033 9.20433 40.8791 8.27875C43.0492 7.55886 44.1595 7.19891 44.1595 7.19891C44.1595 7.19891 44.8156 7.55886 46.0773 7.97023Z" fill="#FFFFFF"/>
    <path d="M63.8925 7.30175C64.3972 7.30175 64.6495 7.40459 64.6495 7.55885C64.6495 10.7984 64.4476 15.6319 64.0944 22.111C63.7411 28.59 63.5392 33.4235 63.5392 36.663C63.5392 37.1773 62.8831 37.5886 61.5205 37.8971C61.0158 38 60.5111 38.0514 60.1074 38.0514C59.7036 38.0514 59.5018 37.9486 59.5018 37.7943C59.5018 35.0176 59.6027 31.7266 59.8046 27.7672C59.1485 27.6644 58.1896 27.6644 56.8774 27.8187C56.5242 27.8701 56.07 27.8701 55.5148 27.8187C55.0101 29.4127 54.5055 31.0582 54.0008 32.8579C53.9503 33.0122 53.698 33.2179 53.1933 33.475C52.7391 33.6806 52.2344 33.8863 51.6793 33.9892C50.468 34.1948 49.9129 34.092 50.0643 33.6292C50.6699 31.4695 51.225 29.4641 51.8307 27.6644C51.7297 27.6644 51.6288 27.6644 51.4774 27.6644C51.3764 27.6644 51.225 27.6644 50.9727 27.7158C50.1147 28.23 49.2063 28.4357 48.2474 28.4357C47.8942 28.4357 47.6418 28.3329 47.5914 28.1272C47.5409 27.9215 47.6923 27.7158 47.9951 27.5101C49.2063 26.7902 50.6194 26.276 52.3353 26.0704C53.0419 24.0649 53.7484 22.1624 54.5055 20.3626C54.8083 19.5913 55.2625 18.5629 55.8681 17.1746C56.5242 15.6833 56.9784 14.6035 57.2307 13.9865C58.6438 10.6955 59.5522 8.79295 59.9055 8.27875C60.3093 7.76454 61.0663 7.40459 62.2775 7.14749C63.0345 7.09607 63.5392 7.14749 63.8925 7.30175ZM58.8962 26.1732C59.2494 26.1218 59.6027 26.1218 59.9055 26.0704C60.2588 20.0027 60.4102 16.3518 60.4607 15.1177C59.4513 17.4317 58.7952 18.9229 58.4924 19.6942C57.6345 21.6996 56.827 23.8078 56.1204 26.0704C57.7859 26.1218 58.6943 26.1732 58.8962 26.1732Z" fill="#FFFFFF"/>
    <path d="M78.3767 10.5927C78.7805 10.6441 78.831 10.8498 78.5786 11.1069C78.4272 11.3126 78.1749 11.4669 77.8721 11.6211C76.8122 12.1353 75.8533 12.2896 75.0459 12.1353C74.2384 11.9811 73.3804 11.8268 72.5225 11.7754C70.1 20.0541 68.5355 27.3045 67.8289 33.6292C67.7785 34.1949 67.0719 34.6062 65.7598 34.8633C65.2551 34.9662 64.8009 34.9662 64.3971 34.9662C63.9934 34.9662 63.7915 34.8633 63.7915 34.7605C64.4981 28.0758 66.1635 20.4141 68.7878 11.6725C68.1822 11.724 67.6271 11.724 67.0719 11.8268C66.6682 11.8782 66.3149 11.9296 66.0121 11.9811C65.7093 12.0325 65.5074 12.0839 65.356 12.0839H65.3055H65.2551C63.9429 12.3924 63.2364 12.3924 63.1354 12.0325C63.0345 11.5697 63.6401 11.1583 65.0027 10.8498C66.9205 10.387 68.8383 10.1299 70.8066 10.0271C71.0084 9.97565 71.2103 9.92423 71.4122 9.87281C72.2701 9.71854 72.8253 9.76996 72.9767 9.97565C74.844 10.0785 76.6608 10.2328 78.3767 10.5927Z" fill="#FFFFFF"/>
    <path d="M80.7991 35.8403C81.2029 35.8403 81.4047 35.9432 81.4552 36.1488C81.5057 36.3545 81.3543 36.5602 81.001 36.7659C80.244 37.2287 79.2851 37.4858 78.1748 37.5372C76.5094 37.5886 75.1972 37.4858 74.2888 37.2801C73.128 37.4858 72.5224 37.4344 72.5729 37.1258C72.5729 37.0744 72.5729 36.9716 72.6233 36.9202C72.6233 36.8173 72.6233 36.7145 72.6233 36.7145C72.5224 36.6116 72.5224 36.4574 72.6738 36.3031C74.2383 27.613 76.0551 19.0771 78.1243 10.6441C78.1748 10.4898 78.4271 10.2327 78.9318 10.0271C79.386 9.82137 79.8907 9.66711 80.4458 9.56427C81.6571 9.35859 82.1618 9.46143 82.0608 9.92421C79.9916 18.3572 78.2253 26.8417 76.6103 35.429C77.5187 35.7375 78.8814 35.8917 80.7991 35.8403Z" fill="#FFFFFF"/>
    <path d="M94.2741 7.30175C94.7788 7.30175 95.0311 7.40459 95.0311 7.55885C95.0311 10.7984 94.8292 15.6319 94.476 22.111C94.1227 28.59 93.9208 33.4235 93.9208 36.663C93.9208 37.1773 93.2647 37.5886 91.9021 37.8971C91.3974 38 90.8927 38.0514 90.489 38.0514C90.0852 38.0514 89.8834 37.9486 89.8834 37.7943C89.8834 35.0176 89.9843 31.7266 90.1862 27.7672C89.5301 27.6644 88.5712 27.6644 87.259 27.8187C86.9058 27.8701 86.4516 27.8701 85.8964 27.8187C85.3917 29.4127 84.887 31.0582 84.3824 32.8579C84.3319 33.0122 84.0796 33.2179 83.5749 33.475C83.1207 33.6806 82.616 33.8863 82.0608 33.9892C80.8496 34.1948 80.2945 34.092 80.4459 33.6292C81.0515 31.4695 81.6066 29.4641 82.2122 27.6644C82.1113 27.6644 82.0104 27.6644 81.859 27.6644C81.758 27.6644 81.6066 27.6644 81.3543 27.7158C80.4963 28.23 79.5879 28.4357 78.629 28.4357C78.2758 28.4357 78.0234 28.3329 77.9729 28.1272C77.9225 27.9215 78.0739 27.7158 78.3767 27.5101C79.5879 26.7902 81.001 26.276 82.7169 26.0704C83.4235 24.0649 84.13 22.1624 84.887 20.3626C85.1899 19.5913 85.6441 18.5629 86.2497 17.1746C86.9058 15.6833 87.36 14.6035 87.6123 13.9865C89.0254 10.6955 89.9338 8.79295 90.2871 8.27875C90.6909 7.76454 91.4479 7.40459 92.6591 7.14749C93.4161 7.09607 93.9208 7.14749 94.2741 7.30175ZM89.2778 26.1732C89.631 26.1218 89.9843 26.1218 90.2871 26.0704C90.6404 20.0027 90.7918 16.3518 90.8423 15.1177C89.8329 17.4317 89.1768 18.9229 88.874 19.6942C88.0161 21.6996 87.259 23.8078 86.502 26.0704C88.1675 26.1218 89.0759 26.1732 89.2778 26.1732Z" fill="#FFFFFF"/>
    <path d="M111.837 6.06766C113.048 5.86197 113.603 5.96481 113.452 6.4276C111.08 14.1921 109.213 23.3451 107.8 33.9377C107.749 34.4005 107.143 34.7605 106.084 35.069C105.478 35.3261 104.872 35.4804 104.317 35.5318C103.712 35.5832 103.308 35.4804 103.207 35.2233C102.803 33.9892 102.349 31.9838 101.844 29.207C101.542 27.253 101.138 25.0419 100.734 22.6252C100.734 22.4709 100.684 22.2652 100.633 22.0081C99.6237 26.8417 98.9172 30.6982 98.5639 33.5778C98.5134 34.0406 97.9078 34.4005 96.6966 34.7091C96.3938 34.8119 95.99 34.8633 95.5358 34.9147C94.8293 34.9662 94.476 34.9147 94.5265 34.6576C94.8797 31.7267 95.5863 27.8701 96.5957 22.9851C97.7564 17.3288 98.5134 13.4723 98.8667 11.364C98.8667 11.2097 99.1695 11.0041 99.6742 10.747C100.128 10.5413 100.633 10.387 101.188 10.2842C102.349 10.0785 102.904 10.1813 102.803 10.6441V10.6955L102.854 10.747C103.207 11.4668 103.51 13.0609 103.813 15.4777C103.914 16.1976 104.216 18.2544 104.771 21.5453C104.973 22.7794 105.175 23.9107 105.327 24.8363C106.487 18.4087 107.85 12.5467 109.465 7.25034C109.515 7.09607 109.768 6.89039 110.272 6.63329C110.727 6.4276 110.979 6.32476 110.979 6.32476C110.979 6.32476 111.282 6.1705 111.837 6.06766Z" fill="#FFFFFF"/>
    <path d="M123.142 10.5927C123.545 10.6441 123.596 10.8498 123.344 11.1069C123.192 11.3126 122.94 11.4669 122.637 11.6211C121.577 12.1353 120.618 12.2896 119.811 12.1353C119.003 11.9811 118.196 11.8268 117.287 11.7754C114.865 20.0541 113.301 27.3045 112.594 33.6292C112.543 34.1949 111.837 34.6062 110.525 34.8633C110.02 34.9662 109.566 34.9662 109.162 34.9662C108.758 34.9662 108.557 34.8633 108.557 34.7605C109.263 28.0758 110.929 20.4141 113.553 11.6725C112.947 11.724 112.392 11.724 111.837 11.8268C111.433 11.8782 111.08 11.9296 110.777 11.9811C110.474 12.0325 110.272 12.0839 110.121 12.0839H110.071H110.02C108.708 12.3924 108.001 12.3924 107.9 12.0325C107.8 11.5697 108.405 11.1583 109.768 10.8498C111.686 10.387 113.603 10.1299 115.572 10.0271C115.773 9.97565 115.975 9.92423 116.177 9.87281C117.035 9.71854 117.59 9.76996 117.742 9.97565C119.559 10.0785 121.375 10.2328 123.142 10.5927Z" fill="#FFFFFF"/>
    <path d="M122.688 11.1069C122.738 10.9526 122.99 10.747 123.495 10.4899C123.949 10.2842 124.454 10.0785 125.009 9.97565C126.17 9.76996 126.725 9.8728 126.624 10.3356C126.17 12.3924 125.413 16.3004 124.303 22.0595C123.848 24.5792 123.445 26.5332 123.091 28.0758C122.788 29.4641 122.587 30.4411 122.435 31.0068C122.132 32.138 121.981 33.0122 121.981 33.5264C121.981 34.0406 121.274 34.452 119.962 34.7605C119.458 34.8633 119.003 34.9148 118.6 34.8633C118.196 34.8633 117.994 34.7605 117.994 34.6062C117.994 34.3491 118.347 32.498 119.104 29.0528C119.458 27.3559 119.861 25.4019 120.316 23.0365C121.426 17.1231 122.233 13.1637 122.688 11.1069Z" fill="#FFFFFF"/>
    <path d="M139.14 8.33018C139.897 9.51286 140.149 11.2612 139.796 13.5751C139.695 14.1922 139.493 15.1691 139.191 16.4032C138.888 17.6373 138.736 18.5629 138.635 19.2314C138.585 19.6942 137.929 20.1055 136.768 20.4141C136.465 20.4655 136.062 20.5683 135.607 20.6198C134.901 20.6712 134.548 20.5683 134.598 20.3627C134.598 20.3112 134.901 18.8714 135.557 16.0947C135.961 14.3464 136.062 12.9066 135.91 11.7754C135.759 10.387 135.305 9.46144 134.648 8.99865C134.598 9.05007 134.548 9.10149 134.548 9.10149C132.63 10.9012 131.267 13.8322 130.409 17.843C129.854 20.6198 129.45 23.705 129.299 27.0988C129.299 29.3613 129.299 30.7497 129.349 31.2125C129.551 32.9093 130.207 34.0406 131.267 34.5034C131.519 34.2463 131.721 33.8863 131.923 33.5264C132.428 32.6008 132.882 31.3667 133.336 29.8241C133.387 29.6698 133.639 29.4127 134.144 29.207C134.598 29.0014 135.103 28.8471 135.658 28.7443C136.869 28.5386 137.374 28.6414 137.273 29.1042C136.667 31.2125 136.011 32.7551 135.305 33.6807C134.648 34.5548 133.74 35.2747 132.63 35.7889C131.57 36.2517 130.46 36.5088 129.299 36.4574C127.28 36.3545 126.069 35.3775 125.564 33.5778C125.312 32.6522 125.211 31.0068 125.211 28.5386C125.362 25.1448 125.766 22.111 126.271 19.3342C127.078 15.3234 128.39 12.2896 130.258 10.1813C131.418 8.84439 132.933 7.97023 134.648 7.50744C136.869 6.78755 138.333 7.1475 139.14 8.33018Z" fill="#FFFFFF"/>
    <path d="M149.385 9.51285C150.445 10.4384 150.95 12.1353 151 14.6035C151 15.8376 150.849 17.7916 150.546 20.4141C150.344 22.4709 149.991 24.3221 149.637 26.0189C149.082 28.59 148.325 30.544 147.467 31.8809C146.508 33.3721 145.398 34.4005 144.136 34.9147C142.622 35.5318 141.361 35.8403 140.351 35.7889C139.544 35.7375 138.989 35.5832 138.635 35.2233C137.979 34.5548 137.576 33.4235 137.525 31.8295C137.475 30.6468 137.525 29.3099 137.677 27.8701C138.03 24.4763 138.686 21.3911 139.695 18.6143C140.906 15.2206 142.421 12.8038 144.237 11.3126C144.54 11.0555 144.944 10.8498 145.449 10.6441C145.398 10.3356 145.852 10.0271 146.761 9.66711C148.174 9.25575 149.032 9.20433 149.385 9.51285ZM146.811 18.5629C146.963 16.7118 146.963 15.2206 146.862 14.1407C146.761 13.4723 146.66 12.8552 146.508 12.4438C145.247 14.0379 144.136 16.3518 143.228 19.3857C142.168 22.8823 141.613 26.2246 141.563 29.3613C141.563 31.1096 141.714 32.3951 142.017 33.1664C142.168 33.475 142.32 33.7321 142.471 33.8863C143.884 32.4465 144.994 29.9269 145.751 26.2246C146.256 23.8593 146.609 21.2882 146.811 18.5629Z" fill="#FFFFFF"/>
    <path d="M90.4891 6.4276C90.2872 6.4276 90.1358 6.47902 89.9339 6.4276C89.6311 6.4276 89.5302 6.37618 89.5806 6.27333C90.9433 4.52503 91.8012 3.39377 92.104 2.93098C93.1134 1.59404 93.8704 0.719885 94.4256 0.308518C94.6274 0.154256 95.0312 0.0514139 95.6368 -6.96257e-06C96.2424 -0.0514278 96.5452 -0.0514278 96.5452 0.0514139C96.5452 0.462781 96.5452 1.43978 96.6461 2.93098C96.6966 4.11366 96.6966 5.09066 96.5957 5.81055C96.5957 5.96481 96.1919 6.11907 95.4349 6.22191C95.1321 6.27334 94.8798 6.27333 94.6779 6.27333C94.476 6.27333 94.3246 6.22191 94.3246 6.22191C94.3751 5.4506 94.3751 4.26792 94.3246 2.62246C94.2741 2.7253 94.2237 2.77672 94.1732 2.82814C93.5676 3.65087 92.7601 4.73071 91.7508 6.01623C91.7003 6.22191 91.2461 6.32476 90.4891 6.4276Z" fill="#FFFFFF"/>
    </g>
    <defs>
    <clipPath id="clip0_25_78">
    <rect width="151" height="38" fill="white"/>
    </clipPath>
    </defs>
</svg>
